<svg xmlns="http://www.w3.org/2000/svg" xmlns:xlink="http://www.w3.org/1999/xlink" width="6912" zoomAndPan="magnify" viewBox="0 0 5184 2592.000001" height="3456" preserveAspectRatio="xMidYMid meet" version="1.0"><path fill="#373737" d="M 251.152344 968.875 L 251.152344 975.105469 L 161.082031 975.105469 L 161.082031 1130.320312 L 251.152344 1130.320312 L 251.152344 1600.78125 L 412.597656 1600.78125 L 412.597656 1130.320312 L 545.292969 1130.320312 L 545.292969 975.105469 L 412.597656 975.105469 L 412.597656 968.875 C 412.597656 883.828125 461.253906 852.667969 545.292969 862.519531 C 568.414062 865.332031 589.523438 868.148438 589.523438 868.148438 L 589.523438 713.136719 C 589.523438 713.136719 570.625 709.113281 545.292969 707.507812 C 346.25 695.042969 251.152344 796.371094 251.152344 969.074219 Z M 251.152344 968.875 " fill-opacity="1" fill-rule="nonzero"/><path fill="#373737" d="M 1478.976562 1082.871094 L 1478.976562 975.308594 L 1317.53125 975.308594 L 1317.53125 1600.980469 L 1478.976562 1600.980469 L 1478.976562 1301.816406 C 1478.976562 1170.527344 1585.332031 1132.933594 1669.171875 1142.984375 L 1669.171875 962.84375 C 1590.359375 962.84375 1511.546875 997.824219 1478.976562 1082.871094 Z M 1478.976562 1082.871094 " fill-opacity="1" fill-rule="nonzero"/><path fill="#373737" d="M 1900.984375 1152.835938 C 1900.984375 1119.058594 1933.554688 1101.566406 1973.5625 1101.566406 C 2019.804688 1101.566406 2054.988281 1125.292969 2073.6875 1165.300781 L 2211.410156 1090.308594 C 2162.554688 1004.058594 2075.09375 957.617188 1973.5625 957.617188 C 1844.691406 957.617188 1735.71875 1028.988281 1735.71875 1156.65625 C 1735.71875 1376.808594 2058.609375 1326.746094 2058.609375 1418.226562 C 2058.609375 1454.613281 2023.625 1472.105469 1972.359375 1472.105469 C 1909.832031 1472.105469 1867.207031 1442.148438 1849.714844 1390.679688 L 1709.582031 1469.492188 C 1754.617188 1565.796875 1847.304688 1618.472656 1972.359375 1618.472656 C 2106.257812 1618.472656 2223.875 1553.332031 2223.875 1418.226562 C 2223.875 1188.019531 1900.984375 1245.523438 1900.984375 1153.039062 Z M 1900.984375 1152.835938 " fill-opacity="1" fill-rule="nonzero"/><path fill="#373737" d="M 2606.675781 1459.238281 C 2510.371094 1459.238281 2439 1387.867188 2439 1289.148438 C 2439 1190.433594 2510.371094 1117.652344 2606.675781 1117.652344 C 2670.410156 1117.652344 2724.292969 1150.222656 2749.222656 1201.492188 L 2888.148438 1120.066406 C 2836.878906 1023.761719 2730.523438 958.621094 2607.882812 958.621094 C 2417.6875 958.621094 2277.554688 1102.574219 2277.554688 1288.949219 C 2277.554688 1475.324219 2417.6875 1619.277344 2607.882812 1619.277344 C 2730.523438 1619.277344 2836.878906 1554.136719 2890.761719 1456.625 L 2750.628906 1376.605469 C 2725.496094 1427.875 2671.816406 1459.238281 2606.675781 1459.238281 Z M 2606.675781 1459.238281 " fill-opacity="1" fill-rule="nonzero"/><path fill="#373737" d="M 4024.894531 957.613281 C 3933.617188 957.613281 3867.269531 991.390625 3822.234375 1048.894531 L 3822.234375 975.105469 L 3660.789062 975.105469 L 3660.789062 1851.089844 L 3822.234375 1851.089844 L 3822.234375 1526.992188 C 3867.269531 1584.496094 3933.617188 1618.269531 4024.894531 1618.269531 C 4192.570312 1618.269531 4330.292969 1474.316406 4330.292969 1287.941406 C 4330.292969 1101.566406 4192.570312 957.613281 4024.894531 957.613281 Z M 3994.9375 1464.464844 C 3896.019531 1464.464844 3822.234375 1393.09375 3822.234375 1287.941406 C 3822.234375 1182.792969 3896.019531 1111.417969 3994.9375 1111.417969 C 4093.855469 1111.417969 4168.847656 1182.792969 4168.847656 1287.941406 C 4168.847656 1393.09375 4095.0625 1464.464844 3994.9375 1464.464844 Z M 3994.9375 1464.464844 " fill-opacity="1" fill-rule="nonzero"/><path fill="#373737" d="M 5021.308594 1287.941406 C 5021.308594 1103.980469 4889.820312 957.613281 4704.652344 957.613281 C 4508.222656 957.613281 4374.324219 1101.566406 4374.324219 1287.941406 C 4374.324219 1474.316406 4507.015625 1618.269531 4717.117188 1618.269531 C 4837.144531 1618.269531 4931.035156 1569.414062 4989.945312 1484.371094 L 4859.863281 1409.378906 C 4832.320312 1445.769531 4782.257812 1471.90625 4719.730469 1471.90625 C 4634.683594 1471.90625 4565.722656 1436.921875 4543.207031 1354.289062 L 5014.875 1354.289062 C 5018.695312 1332.980469 5021.105469 1311.667969 5021.105469 1287.941406 Z M 4540.792969 1229.035156 C 4559.492188 1149.015625 4618.398438 1102.574219 4704.652344 1102.574219 C 4772.203125 1102.574219 4839.757812 1138.964844 4859.863281 1229.035156 Z M 4540.792969 1229.035156 " fill-opacity="1" fill-rule="nonzero"/><path fill="#373737" d="M 3262.910156 957.613281 C 3078.945312 957.613281 2932.582031 1101.566406 2932.582031 1287.941406 C 2932.582031 1474.316406 3078.945312 1618.269531 3262.910156 1618.269531 C 3446.871094 1618.269531 3594.441406 1474.316406 3594.441406 1287.941406 C 3594.441406 1101.566406 3446.871094 957.613281 3262.910156 957.613281 Z M 3262.910156 1460.648438 C 3167.8125 1460.648438 3094.027344 1389.273438 3094.027344 1287.941406 C 3094.027344 1186.613281 3167.8125 1115.238281 3262.910156 1115.238281 C 3358.007812 1115.238281 3433 1186.613281 3433 1287.941406 C 3433 1389.273438 3359.214844 1460.648438 3262.910156 1460.648438 Z M 3262.910156 1460.648438 " fill-opacity="1" fill-rule="nonzero"/><path fill="#373737" d="M 913.820312 957.613281 C 729.859375 957.613281 583.492188 1101.566406 583.492188 1287.941406 C 583.492188 1474.316406 729.859375 1618.269531 913.820312 1618.269531 C 1097.78125 1618.269531 1245.355469 1474.316406 1245.355469 1287.941406 C 1245.355469 1101.566406 1097.78125 957.613281 913.820312 957.613281 Z M 913.820312 1460.648438 C 818.722656 1460.648438 744.9375 1389.273438 744.9375 1287.941406 C 744.9375 1186.613281 818.722656 1115.238281 913.820312 1115.238281 C 1008.917969 1115.238281 1083.910156 1186.613281 1083.910156 1287.941406 C 1083.910156 1389.273438 1010.125 1460.648438 913.820312 1460.648438 Z M 913.820312 1460.648438 " fill-opacity="1" fill-rule="nonzero"/><path fill="#ff6720" d="M 3263.511719 798.382812 C 3352.777344 798.382812 3436.417969 822.308594 3508.394531 863.925781 L 3588.410156 725.402344 C 3490.699219 668.90625 3379.519531 638.746094 3263.511719 638.746094 C 3147.503906 638.746094 3036.324219 668.90625 2938.613281 725.402344 L 3018.632812 863.925781 C 3090.808594 822.308594 3174.246094 798.382812 3263.511719 798.382812 Z M 3263.511719 798.382812 " fill-opacity="1" fill-rule="nonzero"/><path fill="#ff6720" d="M 901.152344 1779.515625 C 811.6875 1779.515625 727.847656 1755.386719 655.671875 1713.570312 L 575.652344 1852.09375 C 673.5625 1908.789062 784.945312 1939.148438 901.152344 1939.148438 C 1017.363281 1939.148438 1128.746094 1908.789062 1226.65625 1852.09375 L 1146.636719 1713.570312 C 1074.460938 1755.386719 990.621094 1779.515625 901.152344 1779.515625 Z M 901.152344 1779.515625 " fill-opacity="1" fill-rule="nonzero"/></svg>